<svg width="16" height="16" viewBox="0 0 16 16" fill="current" xmlns="http://www.w3.org/2000/svg">
<g id="location.circle.fill">
<path id="location.circle.fill_2" d="M4.32182 11.482C6.33542 13.4956 9.65945 13.4956 11.673 11.482C13.6831 9.472 13.6795 6.14442 11.6659 4.13082C9.6559 2.12078 6.33542 2.12433 4.32537 4.13437C2.31178 6.14797 2.31178 9.472 4.32182 11.482ZM4.95751 8.35334C4.48874 8.35334 4.3893 7.84905 4.77994 7.67859L9.67721 5.54425C10.0643 5.37733 10.4194 5.71826 10.249 6.10891L8.11108 11.0097C7.94062 11.4075 7.43633 11.3009 7.43633 10.8322L7.43633 8.53801C7.43633 8.42436 7.3653 8.35334 7.25166 8.35334H4.95751Z" fill="current"/>
</g>
</svg>
