<svg width="28" height="28" viewBox="0 0 28 28" fill="none" xmlns="http://www.w3.org/2000/svg">
<path d="M7.08831 15.0883H12.9117V20.9117C12.9117 21.5036 13.3986 22 14 22C14.6014 22 15.0883 21.5036 15.0883 20.9117V15.0883H20.9117C21.5036 15.0883 22 14.6014 22 14C22 13.3986 21.5036 12.9117 20.9117 12.9117H15.0883V7.08831C15.0883 6.49642 14.6014 6 14 6C13.3986 6 12.9117 6.49642 12.9117 7.08831V12.9117H7.08831C6.49642 12.9117 6 13.3986 6 14C6 14.6014 6.49642 15.0883 7.08831 15.0883Z" fill="#1B120A"/>
</svg>
