<svg width="28" height="28" viewBox="0 0 28 28" fill="current" xmlns="http://www.w3.org/2000/svg">
<g id="home.fill">
<path id="Vector" d="M14 6C14 6 9.0512 10.7467 6.2856 13.3173C6.1976 13.4025 6.1267 13.5073 6.07749 13.6249C6.02829 13.7425 6.00189 13.8703 6 14C6 14.2357 6.08429 14.4618 6.23431 14.6285C6.38434 14.7952 6.58783 14.8889 6.8 14.8889H8.4V21.1111C8.4 21.3469 8.48429 21.573 8.63431 21.7397C8.78434 21.9064 8.98783 22 9.2 22H11.6C11.8122 22 12.0157 21.9064 12.1657 21.7397C12.3157 21.573 12.4 21.3469 12.4 21.1111V17.5556H15.6V21.1111C15.6 21.3469 15.6843 21.573 15.8343 21.7397C15.9843 21.9064 16.1878 22 16.4 22H18.8C19.0122 22 19.2157 21.9064 19.3657 21.7397C19.5157 21.573 19.6 21.3469 19.6 21.1111V14.8889H21.2C21.4122 14.8889 21.6157 14.7952 21.7657 14.6285C21.9157 14.4618 22 14.2357 22 14C21.9989 13.8678 21.9707 13.7377 21.9176 13.6194C21.8645 13.5011 21.7879 13.3978 21.6936 13.3173C18.9472 10.7467 14 6 14 6Z" fill="current"/>
</g>
</svg>
