<svg width="28" height="28" viewBox="0 0 28 28" fill="current" xmlns="http://www.w3.org/2000/svg">
<g id="message.fill">
<path id="message.fill_2" d="M9.27122 21.7454C10.1122 21.7454 12.1183 20.8699 13.3729 19.9875C13.5039 19.891 13.6142 19.8565 13.7245 19.8565C13.8141 19.8634 13.8968 19.8703 13.9726 19.8703C18.9429 19.8634 22.5 17.1542 22.5 13.4317C22.5 9.86773 18.936 7 14.4966 7C10.0571 7 6.5 9.86773 6.5 13.4317C6.5 15.6514 7.83735 17.6368 10.0984 18.857C10.2225 18.9328 10.257 19.0362 10.195 19.1603C9.79513 19.829 9.12645 20.5735 8.85071 20.925C8.5405 21.318 8.71973 21.7454 9.27122 21.7454Z" fill="current"/>
</g>
</svg>
