<svg width="208" height="118" viewBox="0 0 208 118" fill="none" xmlns="http://www.w3.org/2000/svg">
<path d="M27.7814 102.442H18.125V110.068H32.4181V113.287H0V110.068H14.2931V102.442H4.63663V85.5819H27.7814V102.442ZM8.39191 99.2236H24.0262V88.8008H8.39191V99.2236Z" fill="#94661C"/>
<path d="M63.1178 98.6105H39.2449V84.6623H62.7346V87.8811H43.0385V95.3917H63.1178V98.6105ZM49.1696 118V106.274H34.8765V103.056H67.2945V106.274H53.0015V118H49.1696Z" fill="#94661C"/>
<path d="M81.7086 102.059C80.2524 102.059 78.9496 101.842 77.8 101.408C76.6504 100.973 75.6669 100.399 74.8494 99.6834C74.0319 98.9681 73.4061 98.1506 72.9718 97.231C72.5375 96.3113 72.3204 95.3533 72.3204 94.357V92.5944C72.3204 91.5981 72.5375 90.6401 72.9718 89.7204C73.4061 88.8008 74.0319 87.9833 74.8494 87.268C75.6669 86.5527 76.6504 85.9779 77.8 85.5436C78.9496 85.1093 80.2524 84.8922 81.7086 84.8922C83.1647 84.8922 84.4675 85.1093 85.6171 85.5436C86.7667 85.9779 87.7502 86.5527 88.5677 87.268C89.3852 87.9833 90.0111 88.8008 90.4453 89.7204C90.8796 90.6401 91.0968 91.5981 91.0968 92.5944V94.357C91.0968 95.3533 90.8796 96.3113 90.4453 97.231C90.0111 98.1506 89.3852 98.9681 88.5677 99.6834C87.7502 100.399 86.7667 100.973 85.6171 101.408C84.4675 101.842 83.1647 102.059 81.7086 102.059ZM81.7086 98.7638C82.5005 98.7638 83.2413 98.636 83.9311 98.3806C84.6464 98.1251 85.2595 97.793 85.7704 97.3843C86.3069 96.95 86.7156 96.4518 86.9966 95.8898C87.3032 95.3278 87.4564 94.7402 87.4564 94.1271V92.8243C87.4564 92.1856 87.3032 91.5853 86.9966 91.0233C86.7156 90.4357 86.3069 89.9376 85.7704 89.5288C85.2595 89.1201 84.6464 88.8008 83.9311 88.5708C83.2413 88.3154 82.5005 88.1876 81.7086 88.1876C80.8911 88.1876 80.1375 88.3154 79.4477 88.5708C78.758 88.8008 78.1449 89.1201 77.6084 89.5288C77.0975 89.9376 76.6887 90.4357 76.3822 91.0233C76.1012 91.5853 75.9607 92.1856 75.9607 92.8243V94.1271C75.9607 94.7402 76.1012 95.3278 76.3822 95.8898C76.6887 96.4518 77.0975 96.95 77.6084 97.3843C78.1449 97.793 78.758 98.1251 79.4477 98.3806C80.1375 98.636 80.8911 98.7638 81.7086 98.7638ZM93.8558 109.723C92.2464 109.876 90.5986 110.017 88.9126 110.145C87.2265 110.247 85.4383 110.336 83.5479 110.413C81.683 110.489 79.6776 110.553 77.5318 110.604C75.4114 110.63 73.0995 110.643 70.596 110.643V107.347C73.1251 107.347 75.437 107.334 77.5318 107.309C79.6521 107.283 81.6319 107.245 83.4712 107.194C85.3106 107.117 87.0477 107.028 88.6827 106.926C90.3176 106.824 91.927 106.696 93.5109 106.543L93.8558 109.723ZM95.6951 118V82.6697H99.4504V118H95.6951Z" fill="#94661C"/>
<path d="M132.909 102.251H122.754V110.068H137.048V113.287H104.629V110.068H118.923V102.251H108.998V85.6203H132.488V88.8391H112.791V99.032H132.909V102.251Z" fill="black"/>
<path d="M165.256 118V96.9244H157.746V93.5907H165.256V82.6697H169.05V118H165.256ZM150.159 100.258C149.98 100.692 149.712 101.127 149.354 101.561C149.022 101.995 148.549 102.545 147.936 103.209C147.144 104.077 146.237 105.023 145.215 106.044C144.194 107.041 143.031 108.139 141.728 109.34L139.238 106.772C141.562 104.703 143.581 102.723 145.292 100.833C145.88 100.169 146.365 99.5557 146.748 98.9937C147.131 98.4317 147.425 97.8824 147.63 97.3459C147.86 96.7839 148.013 96.2219 148.089 95.6599C148.192 95.0723 148.243 94.4337 148.243 93.7439V85.2371H152.075V93.7439C152.075 94.5103 152.126 95.2001 152.228 95.8132C152.33 96.4007 152.496 96.9755 152.726 97.5375C152.956 98.074 153.263 98.6232 153.646 99.1853C154.054 99.7217 154.553 100.309 155.14 100.948C155.958 101.842 156.813 102.723 157.708 103.592C158.602 104.435 159.624 105.367 160.773 106.389L158.321 108.995C156.992 107.769 155.868 106.709 154.949 105.814C154.054 104.895 153.237 104.039 152.496 103.247C151.96 102.66 151.474 102.11 151.04 101.599C150.631 101.088 150.35 100.641 150.197 100.258H150.159Z" fill="black"/>
<path d="M198.753 108.88V82.6697H202.509V93.4374H207.49V96.7328H202.509V108.88H198.753ZM183.771 114.398H203.467V117.655H179.977V107.041H183.771V114.398ZM196.876 102.749C195.343 102.902 193.861 103.043 192.431 103.17C191.026 103.273 189.467 103.362 187.756 103.439C186.07 103.49 184.154 103.541 182.008 103.592C179.862 103.618 177.32 103.63 174.382 103.63V100.373H181.433V93.0542H185.188V100.297C186.236 100.271 187.232 100.245 188.177 100.22C189.123 100.169 190.042 100.118 190.936 100.067C191.856 99.99 192.776 99.9261 193.695 99.875C194.615 99.7984 195.573 99.709 196.569 99.6068L196.876 102.749ZM189.519 96.6179C189.8 95.2895 190.004 93.9994 190.132 92.7476C190.285 91.4959 190.362 90.3208 190.362 89.2223V87.7278H176.758V84.4707H194.117V88.6858C194.117 89.3755 194.091 90.0908 194.04 90.8317C194.015 91.5725 193.964 92.3134 193.887 93.0542C193.81 93.795 193.708 94.5103 193.58 95.2001C193.478 95.8898 193.363 96.5157 193.235 97.0777L189.519 96.6179Z" fill="black"/>
<rect x="73.0899" width="61.543" height="61.543" rx="7" fill="#94661C"/>
<g clip-path="url(#clip0_573_5644)">
<path d="M80.6963 10.3724V44.9489L101.98 51.1706V16.9001L80.6963 10.3724Z" fill="white"/>
<path d="M105.777 16.7981V51.1706L126.72 44.5409L127.043 10.3724L105.777 16.7981Z" fill="#EFEFEF"/>
<g clip-path="url(#clip1_573_5644)">
<path d="M115.414 13.8967V24.7683L117.944 20.8657L120.681 23.0957V12.2242L115.414 13.8967Z" fill="#94661C"/>
</g>
</g>
<defs>
<clipPath id="clip0_573_5644">
<rect width="46.3301" height="40.7982" fill="white" transform="translate(80.6963 10.3724)"/>
</clipPath>
<clipPath id="clip1_573_5644">
<rect width="5.26751" height="12.5441" fill="white" transform="translate(115.414 12.2242)"/>
</clipPath>
</defs>
</svg>
